<?xml version="1.0" encoding="UTF-8" standalone="no"?>
<svg
   xmlns:dc="http://purl.org/dc/elements/1.1/"
   xmlns:cc="http://creativecommons.org/ns#"
   xmlns:rdf="http://www.w3.org/1999/02/22-rdf-syntax-ns#"
   xmlns:svg="http://www.w3.org/2000/svg"
   xmlns="http://www.w3.org/2000/svg"
   xmlns:sodipodi="http://sodipodi.sourceforge.net/DTD/sodipodi-0.dtd"
   xmlns:inkscape="http://www.inkscape.org/namespaces/inkscape"
   height="324"
   id="Layer_1"
   version="1.1"
   viewBox="0 0 324 324"
   width="324"
   xml:space="preserve"
   inkscape:version="0.48.3.1 r9886"
   sodipodi:docname="folder.svg"><metadata
     id="metadata3033"><rdf:RDF><cc:Work
         rdf:about=""><dc:format>image/svg+xml</dc:format><dc:type
           rdf:resource="http://purl.org/dc/dcmitype/StillImage" /><dc:title /></cc:Work></rdf:RDF></metadata><defs
     id="defs3031" /><sodipodi:namedview
     pagecolor="#ffffff"
     bordercolor="#666666"
     borderopacity="1"
     objecttolerance="10"
     gridtolerance="10"
     guidetolerance="10"
     inkscape:pageopacity="0"
     inkscape:pageshadow="2"
     inkscape:window-width="1855"
     inkscape:window-height="1056"
     id="namedview3029"
     showgrid="false"
     inkscape:zoom="1.7753906"
     inkscape:cx="256"
     inkscape:cy="256"
     inkscape:window-x="65"
     inkscape:window-y="24"
     inkscape:window-maximized="1"
     inkscape:current-layer="Layer_1"
     inkscape:showpageshadow="false"
     showborder="true" /><g
     id="g3023"
     style="fill:#666666"
     transform="translate(-94.063808,-93.372939)"><path
       d="m 96,370.9 c 0,15.5 12.7,29.1 28.2,29.1 H 390.5 C 406,400 416,386.4 416,370.9 V 208 H 96 v 162.9 z"
       id="path3025"
       style="fill:#666666"
       inkscape:connector-curvature="0" /><path
       d="m 416,168.8 c 0,-15.5 -10,-24.8 -25.5,-24.8 0,0 -154.7,0 -167,0 -4.7,0 -10.7,-9.9 -18.5,-19 -7.1,-8.3 -14.7,-13 -20.5,-13 -7.5,0 -60.3,0 -60.3,0 -15.5,0 -28.2,8.9 -28.2,24.3 V 192 h 320 v -23.2 z"
       id="path3027"
       style="fill:#666666"
       inkscape:connector-curvature="0" /></g></svg>