<?xml version="1.0" encoding="UTF-8" standalone="no"?>
<svg
   xmlns:dc="http://purl.org/dc/elements/1.1/"
   xmlns:cc="http://creativecommons.org/ns#"
   xmlns:rdf="http://www.w3.org/1999/02/22-rdf-syntax-ns#"
   xmlns:svg="http://www.w3.org/2000/svg"
   xmlns="http://www.w3.org/2000/svg"
   xmlns:sodipodi="http://sodipodi.sourceforge.net/DTD/sodipodi-0.dtd"
   xmlns:inkscape="http://www.inkscape.org/namespaces/inkscape"
   height="1024"
   id="Layer_1"
   version="1.1"
   viewBox="0 0 1024 1024"
   width="1024"
   xml:space="preserve"
   inkscape:version="0.48.3.1 r9886"
   sodipodi:docname="close.svg"><metadata
     id="metadata3095"><rdf:RDF><cc:Work
         rdf:about=""><dc:format>image/svg+xml</dc:format><dc:type
           rdf:resource="http://purl.org/dc/dcmitype/StillImage" /><dc:title /></cc:Work></rdf:RDF></metadata><defs
     id="defs3093" /><sodipodi:namedview
     pagecolor="#ffffff"
     bordercolor="#666666"
     borderopacity="1"
     objecttolerance="10"
     gridtolerance="10"
     guidetolerance="10"
     inkscape:pageopacity="0"
     inkscape:pageshadow="2"
     inkscape:window-width="1855"
     inkscape:window-height="1056"
     id="namedview3091"
     showgrid="true"
     inkscape:zoom="0.4609375"
     inkscape:cx="256"
     inkscape:cy="256"
     inkscape:window-x="65"
     inkscape:window-y="24"
     inkscape:window-maximized="1"
     inkscape:current-layer="Layer_1"
     inkscape:showpageshadow="false" /><path
     d="m 699.08305,646.94746 -130.6,-130.6 130.6,-130.6 c 14.1,-14.1 14.1,-36.8 0,-50.9 -14.1,-14.1 -36.8,-14.1 -50.9,0 l -130.6,130.6 -130.6,-130.6 c -14.1,-14.1 -36.8,-14.1 -50.9,0 -14.1,14.1 -14.1,36.8 0,50.9 l 130.6,130.6 -130.6,130.6 c -14.1,14.1 -14.1,36.8 0,50.9 14.1,14.1 36.8,14.1 50.9,0 l 130.6,-130.6 130.6,130.6 c 14.1,14.1 36.8,14.1 50.9,0 14,-14.1 14,-36.9 0,-50.9 z"
     id="path3089"
     style="fill:#666666"
     inkscape:connector-curvature="0" /></svg>