<?xml version="1.0" encoding="UTF-8" standalone="no"?>
<!-- Created with Inkscape (http://www.inkscape.org/) -->

<svg
   xmlns:dc="http://purl.org/dc/elements/1.1/"
   xmlns:cc="http://creativecommons.org/ns#"
   xmlns:rdf="http://www.w3.org/1999/02/22-rdf-syntax-ns#"
   xmlns:svg="http://www.w3.org/2000/svg"
   xmlns="http://www.w3.org/2000/svg"
   xmlns:xlink="http://www.w3.org/1999/xlink"
   xmlns:sodipodi="http://sodipodi.sourceforge.net/DTD/sodipodi-0.dtd"
   xmlns:inkscape="http://www.inkscape.org/namespaces/inkscape"
   inkscape:output_extension="org.inkscape.output.svg.inkscape"
   sodipodi:docname="unknown.svg"
   inkscape:version="0.48.2 r9819"
   sodipodi:version="0.32"
   id="svg2"
   height="256"
   width="256"
   version="1.0"
   inkscape:export-filename="C:\Users\Zach\unknown.png"
   inkscape:export-xdpi="90"
   inkscape:export-ydpi="90">
  <metadata
     id="metadata16464">
    <rdf:RDF>
      <cc:Work
         rdf:about="">
        <dc:format>image/svg+xml</dc:format>
        <dc:type
           rdf:resource="http://purl.org/dc/dcmitype/StillImage" />
        <dc:title />
      </cc:Work>
    </rdf:RDF>
  </metadata>
  <sodipodi:namedview
     inkscape:window-height="750"
     inkscape:window-width="1280"
     inkscape:pageshadow="2"
     inkscape:pageopacity="0.0"
     guidetolerance="10.0"
     gridtolerance="10.0"
     objecttolerance="10.0"
     borderopacity="1.0"
     bordercolor="#666666"
     pagecolor="#ffffff"
     id="base"
     showgrid="false"
     inkscape:zoom="0.5"
     inkscape:cx="-61.519361"
     inkscape:cy="314.06132"
     inkscape:window-x="-8"
     inkscape:window-y="-8"
     inkscape:current-layer="g3087"
     inkscape:window-maximized="1"
     fit-margin-top="0"
     fit-margin-left="0"
     fit-margin-right="0"
     fit-margin-bottom="0" />
  <defs
     id="defs4">
    <linearGradient
       id="linearGradient5682">
      <stop
         id="stop5684"
         offset="0"
         style="stop-color:#8e8e8e;stop-opacity:1;" />
      <stop
         id="stop5686"
         offset="1"
         style="stop-color:#616161;stop-opacity:1;" />
    </linearGradient>
    <linearGradient
       id="linearGradient3900">
      <stop
         style="stop-color:#ffffff;stop-opacity:1;"
         offset="0"
         id="stop3902" />
      <stop
         id="stop5778"
         offset="0.33333334"
         style="stop-color:#ffffff;stop-opacity:0.72972971;" />
      <stop
         style="stop-color:#ffffff;stop-opacity:0;"
         offset="1"
         id="stop3904" />
    </linearGradient>
    <radialGradient
       inkscape:collect="always"
       xlink:href="#linearGradient5682"
       id="radialGradient6063"
       gradientUnits="userSpaceOnUse"
       gradientTransform="matrix(0.92334468,-3.0395864e-8,3.2918685e-8,1,-8.4430004,-3.3478726e-6)"
       cx="-110.14237"
       cy="75.703133"
       fx="-110.14237"
       fy="75.703133"
       r="93.730293" />
    <linearGradient
       inkscape:collect="always"
       xlink:href="#linearGradient3900"
       id="linearGradient3063"
       gradientUnits="userSpaceOnUse"
       gradientTransform="matrix(1.1086475,0,0,1.1086475,-10.95905,-25.81912)"
       x1="141.41411"
       y1="148.37509"
       x2="65.075523"
       y2="-81.892136" />
    <radialGradient
       inkscape:collect="always"
       xlink:href="#linearGradient5682"
       id="radialGradient4009"
       gradientUnits="userSpaceOnUse"
       gradientTransform="matrix(0.92334468,-3.0395864e-8,3.2918685e-8,1,-8.4430004,-3.3478726e-6)"
       cx="-110.14237"
       cy="75.703133"
       fx="-110.14237"
       fy="75.703133"
       r="93.730293" />
    <linearGradient
       inkscape:collect="always"
       xlink:href="#linearGradient3900"
       id="linearGradient4011"
       gradientUnits="userSpaceOnUse"
       gradientTransform="matrix(1.1086475,0,0,1.1086475,324.20957,-25.81912)"
       x1="141.41411"
       y1="148.37509"
       x2="65.075523"
       y2="-81.892136" />
  </defs>
  <g
     style="display:inline"
     id="layer4"
     transform="translate(-2854.7509,-1783.1506)" />
  <g
     style="display:inline"
     id="layer5"
     transform="translate(-2854.7509,-1783.1506)" />
  <g
     id="g3087">
    <path
       inkscape:export-ydpi="90"
       inkscape:export-xdpi="90"
       inkscape:export-filename="C:\Users\Zach\test8.png"
       transform="matrix(1.360286,0,0,1.360286,278.65648,24.05159)"
       d="m -20.023239,76.416588 a 90.730293,90.730293 0 1 1 -181.460591,0 90.730293,90.730293 0 1 1 181.460591,0 z"
       sodipodi:ry="90.730293"
       sodipodi:rx="90.730293"
       sodipodi:cy="76.416588"
       sodipodi:cx="-110.75353"
       id="path5972"
       style="fill:url(#radialGradient6063);fill-opacity:1;stroke:#555555;stroke-width:6;stroke-linecap:round;stroke-linejoin:round;stroke-miterlimit:4;stroke-opacity:1;stroke-dasharray:none"
       sodipodi:type="arc" />
    <path
       sodipodi:type="arc"
       style="fill:#ffffff;fill-opacity:1;stroke:none"
       id="path5974"
       sodipodi:cx="-110.75353"
       sodipodi:cy="76.416588"
       sodipodi:rx="90.730293"
       sodipodi:ry="90.730293"
       d="m -20.023239,76.416588 a 90.730293,90.730293 0 1 1 -181.460591,0 90.730293,90.730293 0 1 1 181.460591,0 z"
       transform="matrix(1.0485459,0,0,1.0485459,244.13017,47.87371)"
       inkscape:export-filename="C:\Users\Zach\test8.png"
       inkscape:export-xdpi="90"
       inkscape:export-ydpi="90" />
    <path
       inkscape:connector-curvature="0"
       id="path4150"
       style="font-size:223.28926086px;font-style:normal;font-variant:normal;font-weight:normal;font-stretch:normal;text-align:center;line-height:125%;letter-spacing:0px;word-spacing:0px;writing-mode:lr-tb;text-anchor:middle;fill:#555555;fill-opacity:1;stroke:none;font-family:Franklin Gothic Demi;-inkscape-font-specification:Franklin Gothic Demi"
       d="m 110.84512,161.1445 0,-4.14307 c -4e-5,-13.22866 1.03572,-21.56929 3.10729,-25.02191 2.07149,-3.45248 7.54105,-8.44959 16.40871,-14.99135 4.6518,-3.41612 7.88629,-6.59609 9.70349,-9.53994 1.81706,-2.94366 2.72563,-6.59609 2.7257,-10.957313 -7e-5,-5.3786 -1.70818,-9.612515 -5.12432,-12.701757 -3.41627,-3.089002 -7.55933,-4.633564 -12.42918,-4.633688 -12.86534,1.24e-4 -20.09752,9.085779 -21.69657,27.256988 L 73.666582,102.16037 C 75.919821,85.73361 81.934524,73.304435 91.710709,64.872809 101.48685,56.441461 113.4254,52.225717 127.52639,52.225566 c 14.39162,1.51e-4 26.45737,4.14321 36.19729,12.429187 9.73972,8.286256 14.60964,18.789272 14.60974,31.50908 -1e-4,15.772807 -8.10451,28.965177 -24.31323,39.577147 -7.05055,4.65193 -11.32081,8.28619 -12.81079,10.9028 -1.49012,2.61672 -2.23514,7.45029 -2.23507,14.50072 z m 33.58061,42.62993 -34.23478,0 0,-32.92644 34.23478,0 z" />
    <path
       inkscape:connector-curvature="0"
       style="opacity:0.23999999;fill:url(#linearGradient3063);fill-opacity:1;stroke:none"
       d="m 130.96047,0.50006 c -68.16242,0 -123.44092,55.2785 -123.44092,123.44104 0,11.02583 1.44501,21.70233 4.15743,31.87362 4.00377,1.10964 8.47361,3.17195 13.44235,6.44401 45.36386,29.87373 171.89591,5.89701 220.58615,-83.84148 C 227.58619,32.78776 183.04339,0.50006 130.96047,0.50006 z"
       id="path5980"
       inkscape:export-filename="C:\Users\Zach\test8.png"
       inkscape:export-xdpi="90"
       inkscape:export-ydpi="90" />
  </g>
</svg>
